<svg width="192" height="192" viewBox="0 0 192 192" fill="none" xmlns="http://www.w3.org/2000/svg">
<path d="M96 0C42.9857 0 0 42.9857 0 96C0 149.014 42.9857 192 96 192C149.014 192 192 149.014 192 96C192 42.9857 149.014 0 96 0ZM131.443 132.471L117.3 132.407L96 107.014L74.7214 132.386L60.5571 132.45C59.6143 132.45 58.8429 131.7 58.8429 130.736C58.8429 130.329 58.9929 129.943 59.25 129.621L87.1286 96.4071L59.25 63.2143C58.9911 62.9002 58.8474 62.507 58.8429 62.1C58.8429 61.1571 59.6143 60.3857 60.5571 60.3857L74.7214 60.45L96 85.8429L117.279 60.4714L131.421 60.4071C132.364 60.4071 133.136 61.1571 133.136 62.1214C133.136 62.5286 132.986 62.9143 132.729 63.2357L104.893 96.4286L132.75 129.643C133.007 129.964 133.157 130.35 133.157 130.757C133.157 131.7 132.386 132.471 131.443 132.471Z" fill="#B63334"/>
</svg>
